<mxfile host="app.diagrams.net" modified="2022-03-06T13:41:55.063Z" agent="5.0 (Windows NT 10.0; Win64; x64) AppleWebKit/537.36 (KHTML, like Gecko) Chrome/98.0.4758.102 Safari/537.36" etag="GF2mFzbMXUN14duD5xZ_" version="16.6.6" type="github">
  <diagram id="kLyQm-Toki9W5qKnpyDU" name="Page-1">
    <mxGraphModel dx="1038" dy="579" grid="1" gridSize="10" guides="1" tooltips="1" connect="1" arrows="1" fold="1" page="1" pageScale="1" pageWidth="827" pageHeight="1169" math="0" shadow="0">
      <root>
        <mxCell id="0" />
        <mxCell id="1" parent="0" />
        <mxCell id="VYvJDnEhLbYyVxIdmiwh-4" value="&lt;div style=&quot;box-sizing: border-box ; width: 100% ; background: #e4e4e4 ; padding: 2px&quot;&gt;account_type&lt;/div&gt;&lt;table style=&quot;width: 100% ; font-size: 1em&quot; cellpadding=&quot;2&quot; cellspacing=&quot;0&quot;&gt;&lt;tbody&gt;&lt;tr&gt;&lt;td&gt;PK&lt;/td&gt;&lt;td&gt;account_type_id&lt;/td&gt;&lt;/tr&gt;&lt;tr&gt;&lt;td&gt;&lt;br&gt;&lt;/td&gt;&lt;td&gt;account_type&lt;/td&gt;&lt;/tr&gt;&lt;tr&gt;&lt;td&gt;&lt;/td&gt;&lt;td&gt;&lt;br&gt;&lt;/td&gt;&lt;/tr&gt;&lt;/tbody&gt;&lt;/table&gt;" style="verticalAlign=top;align=left;overflow=fill;html=1;" parent="1" vertex="1">
          <mxGeometry x="330" y="470" width="180" height="60" as="geometry" />
        </mxCell>
        <mxCell id="VYvJDnEhLbYyVxIdmiwh-5" value="&lt;div style=&quot;box-sizing: border-box ; width: 100% ; background: #e4e4e4 ; padding: 2px&quot;&gt;&lt;i&gt;country&lt;/i&gt;&lt;/div&gt;&lt;table style=&quot;width: 100% ; font-size: 1em&quot; cellpadding=&quot;2&quot; cellspacing=&quot;0&quot;&gt;&lt;tbody&gt;&lt;tr&gt;&lt;td&gt;&lt;i&gt;PK&lt;/i&gt;&lt;/td&gt;&lt;td&gt;&lt;i&gt;country_id&lt;/i&gt;&lt;/td&gt;&lt;/tr&gt;&lt;tr&gt;&lt;td&gt;&lt;i&gt;&lt;br&gt;&lt;/i&gt;&lt;/td&gt;&lt;td&gt;&lt;i&gt;country_name&lt;/i&gt;&lt;/td&gt;&lt;/tr&gt;&lt;tr&gt;&lt;td&gt;&lt;/td&gt;&lt;td&gt;&lt;i&gt;&lt;br&gt;&lt;/i&gt;&lt;/td&gt;&lt;/tr&gt;&lt;/tbody&gt;&lt;/table&gt;" style="verticalAlign=top;align=left;overflow=fill;html=1;" parent="1" vertex="1">
          <mxGeometry x="350" y="380" width="180" height="60" as="geometry" />
        </mxCell>
        <mxCell id="VYvJDnEhLbYyVxIdmiwh-6" value="&lt;div style=&quot;box-sizing: border-box ; width: 100% ; background: #e4e4e4 ; padding: 2px&quot;&gt;&lt;i&gt;link&lt;/i&gt;&lt;/div&gt;&lt;table style=&quot;width: 100% ; font-size: 1em&quot; cellpadding=&quot;2&quot; cellspacing=&quot;0&quot;&gt;&lt;tbody&gt;&lt;tr&gt;&lt;td&gt;&lt;i&gt;PK&lt;/i&gt;&lt;/td&gt;&lt;td&gt;&lt;i&gt;link_id&lt;/i&gt;&lt;/td&gt;&lt;/tr&gt;&lt;tr&gt;&lt;td&gt;&lt;i&gt;FK&lt;/i&gt;&lt;/td&gt;&lt;td&gt;&lt;i&gt;user_id&lt;/i&gt;&lt;/td&gt;&lt;/tr&gt;&lt;tr&gt;&lt;td&gt;&lt;/td&gt;&lt;td&gt;&lt;i&gt;link_content&lt;/i&gt;&lt;/td&gt;&lt;/tr&gt;&lt;/tbody&gt;&lt;/table&gt;" style="verticalAlign=top;align=left;overflow=fill;html=1;" parent="1" vertex="1">
          <mxGeometry x="430" y="30" width="180" height="80" as="geometry" />
        </mxCell>
        <mxCell id="VYvJDnEhLbYyVxIdmiwh-28" value="" style="endArrow=open;html=1;startArrow=diamondThin;startFill=0;edgeStyle=orthogonalEdgeStyle;rounded=0;exitX=0.002;exitY=0.365;exitDx=0;exitDy=0;exitPerimeter=0;entryX=0.009;entryY=0.386;entryDx=0;entryDy=0;entryPerimeter=0;" parent="1" source="VYvJDnEhLbYyVxIdmiwh-3" target="VYvJDnEhLbYyVxIdmiwh-4" edge="1">
          <mxGeometry relative="1" as="geometry">
            <mxPoint x="440" y="210" as="sourcePoint" />
            <mxPoint x="600" y="210" as="targetPoint" />
            <Array as="points">
              <mxPoint x="312" y="234" />
            </Array>
          </mxGeometry>
        </mxCell>
        <mxCell id="VYvJDnEhLbYyVxIdmiwh-31" value="&lt;div style=&quot;box-sizing: border-box ; width: 100% ; background: #e4e4e4 ; padding: 2px&quot;&gt;post_user&lt;/div&gt;&lt;table style=&quot;width: 100% ; font-size: 1em&quot; cellpadding=&quot;2&quot; cellspacing=&quot;0&quot;&gt;&lt;tbody&gt;&lt;tr&gt;&lt;td&gt;PK&lt;/td&gt;&lt;td&gt;post_user_id&lt;/td&gt;&lt;/tr&gt;&lt;tr&gt;&lt;td&gt;FK&lt;/td&gt;&lt;td&gt;user_id&lt;/td&gt;&lt;/tr&gt;&lt;tr&gt;&lt;td&gt;FK&lt;/td&gt;&lt;td&gt;post_id&lt;/td&gt;&lt;/tr&gt;&lt;/tbody&gt;&lt;/table&gt;" style="verticalAlign=top;align=left;overflow=fill;html=1;" parent="1" vertex="1">
          <mxGeometry x="150" y="100" width="180" height="80" as="geometry" />
        </mxCell>
        <mxCell id="VYvJDnEhLbYyVxIdmiwh-32" value="&lt;div style=&quot;box-sizing: border-box ; width: 100% ; background: #e4e4e4 ; padding: 2px&quot;&gt;post&lt;/div&gt;&lt;table style=&quot;width: 100% ; font-size: 1em&quot; cellpadding=&quot;2&quot; cellspacing=&quot;0&quot;&gt;&lt;tbody&gt;&lt;tr&gt;&lt;td&gt;PK&lt;/td&gt;&lt;td&gt;post_id&lt;/td&gt;&lt;/tr&gt;&lt;tr&gt;&lt;td&gt;&lt;br&gt;&lt;/td&gt;&lt;td&gt;post_content&lt;/td&gt;&lt;/tr&gt;&lt;tr&gt;&lt;td&gt;&lt;/td&gt;&lt;td&gt;&lt;br&gt;&lt;/td&gt;&lt;/tr&gt;&lt;/tbody&gt;&lt;/table&gt;" style="verticalAlign=top;align=left;overflow=fill;html=1;" parent="1" vertex="1">
          <mxGeometry x="110" y="230" width="180" height="60" as="geometry" />
        </mxCell>
        <mxCell id="VYvJDnEhLbYyVxIdmiwh-41" value="" style="endArrow=open;html=1;startArrow=diamondThin;startFill=0;edgeStyle=orthogonalEdgeStyle;rounded=0;exitX=0;exitY=0.75;exitDx=0;exitDy=0;entryX=0;entryY=0.5;entryDx=0;entryDy=0;" parent="1" source="VYvJDnEhLbYyVxIdmiwh-3" target="VYvJDnEhLbYyVxIdmiwh-5" edge="1">
          <mxGeometry relative="1" as="geometry">
            <mxPoint x="50.3599999999999" y="200.63999999999996" as="sourcePoint" />
            <mxPoint x="590" y="130" as="targetPoint" />
            <Array as="points">
              <mxPoint x="340" y="280" />
              <mxPoint x="340" y="410" />
            </Array>
          </mxGeometry>
        </mxCell>
        <mxCell id="VYvJDnEhLbYyVxIdmiwh-42" value="" style="endArrow=open;html=1;startArrow=diamondThin;startFill=0;edgeStyle=orthogonalEdgeStyle;rounded=0;exitX=-0.003;exitY=0.591;exitDx=0;exitDy=0;exitPerimeter=0;entryX=-0.003;entryY=0.181;entryDx=0;entryDy=0;entryPerimeter=0;" parent="1" source="VYvJDnEhLbYyVxIdmiwh-6" target="VYvJDnEhLbYyVxIdmiwh-3" edge="1">
          <mxGeometry relative="1" as="geometry">
            <mxPoint x="20" y="290" as="sourcePoint" />
            <mxPoint x="600" y="180" as="targetPoint" />
            <Array as="points">
              <mxPoint x="390" y="77" />
              <mxPoint x="390" y="160" />
              <mxPoint x="610" y="160" />
              <mxPoint x="610" y="212" />
            </Array>
          </mxGeometry>
        </mxCell>
        <mxCell id="VYvJDnEhLbYyVxIdmiwh-43" value="" style="endArrow=open;html=1;startArrow=diamondThin;startFill=0;edgeStyle=orthogonalEdgeStyle;rounded=0;exitX=-0.003;exitY=0.601;exitDx=0;exitDy=0;exitPerimeter=0;entryX=0;entryY=0.25;entryDx=0;entryDy=0;" parent="1" source="VYvJDnEhLbYyVxIdmiwh-31" target="VYvJDnEhLbYyVxIdmiwh-3" edge="1">
          <mxGeometry relative="1" as="geometry">
            <mxPoint x="50" y="140" as="sourcePoint" />
            <mxPoint x="10" y="60" as="targetPoint" />
            <Array as="points">
              <mxPoint x="130" y="148" />
              <mxPoint x="130" y="70" />
              <mxPoint x="360" y="70" />
              <mxPoint x="360" y="220" />
            </Array>
          </mxGeometry>
        </mxCell>
        <mxCell id="VYvJDnEhLbYyVxIdmiwh-3" value="&lt;div style=&quot;box-sizing: border-box ; width: 100% ; background: #e4e4e4 ; padding: 2px&quot;&gt;user&lt;/div&gt;&lt;table style=&quot;width: 100% ; font-size: 1em&quot; cellpadding=&quot;2&quot; cellspacing=&quot;0&quot;&gt;&lt;tbody&gt;&lt;tr&gt;&lt;td&gt;PK&lt;/td&gt;&lt;td&gt;user_id&lt;/td&gt;&lt;/tr&gt;&lt;tr&gt;&lt;td&gt;FK&lt;/td&gt;&lt;td&gt;account_type_id&lt;/td&gt;&lt;/tr&gt;&lt;tr&gt;&lt;td&gt;&lt;br&gt;&lt;i&gt;FK&lt;/i&gt;&lt;/td&gt;&lt;td&gt;user_name&lt;br&gt;user_link&lt;br&gt;&lt;i&gt;country_id&lt;/i&gt;&lt;br&gt;&lt;br&gt;&lt;/td&gt;&lt;/tr&gt;&lt;/tbody&gt;&lt;/table&gt;" style="verticalAlign=top;align=left;overflow=fill;html=1;" parent="1" vertex="1">
          <mxGeometry x="630" y="190" width="180" height="120" as="geometry" />
        </mxCell>
        <mxCell id="VYvJDnEhLbYyVxIdmiwh-46" value="" style="endArrow=open;html=1;startArrow=diamondThin;startFill=0;edgeStyle=orthogonalEdgeStyle;rounded=0;exitX=0;exitY=0.75;exitDx=0;exitDy=0;entryX=0;entryY=0.5;entryDx=0;entryDy=0;" parent="1" target="VYvJDnEhLbYyVxIdmiwh-32" edge="1">
          <mxGeometry relative="1" as="geometry">
            <mxPoint x="150" y="160" as="sourcePoint" />
            <mxPoint x="140" y="240" as="targetPoint" />
            <Array as="points">
              <mxPoint x="80" y="160" />
              <mxPoint x="80" y="260" />
            </Array>
          </mxGeometry>
        </mxCell>
        <mxCell id="FzGIBOFDPGKLy1hTl4xL-3" value="" style="edgeStyle=orthogonalEdgeStyle;rounded=0;orthogonalLoop=1;jettySize=auto;html=1;" edge="1" parent="1" source="FzGIBOFDPGKLy1hTl4xL-1" target="VYvJDnEhLbYyVxIdmiwh-3">
          <mxGeometry relative="1" as="geometry" />
        </mxCell>
        <mxCell id="FzGIBOFDPGKLy1hTl4xL-1" value="&lt;div style=&quot;box-sizing: border-box ; width: 100% ; background: #e4e4e4 ; padding: 2px&quot;&gt;user-django&lt;/div&gt;&lt;table style=&quot;width: 100% ; font-size: 1em&quot; cellpadding=&quot;2&quot; cellspacing=&quot;0&quot;&gt;&lt;tbody&gt;&lt;tr&gt;&lt;td&gt;PK&lt;/td&gt;&lt;td&gt;user-django_id&lt;/td&gt;&lt;/tr&gt;&lt;tr&gt;&lt;td&gt;FK&lt;/td&gt;&lt;td&gt;user_id&lt;/td&gt;&lt;/tr&gt;&lt;tr&gt;&lt;td&gt;&lt;/td&gt;&lt;td&gt;&lt;br&gt;&lt;/td&gt;&lt;/tr&gt;&lt;/tbody&gt;&lt;/table&gt;" style="verticalAlign=top;align=left;overflow=fill;html=1;" vertex="1" parent="1">
          <mxGeometry x="630" y="390" width="180" height="65" as="geometry" />
        </mxCell>
      </root>
    </mxGraphModel>
  </diagram>
</mxfile>
